<svg width="1280" height="720" xmlns="http://www.w3.org/2000/svg" xmlns:xlink="http://www.w3.org/1999/xlink" overflow="hidden"><g><rect x="0" y="0" width="1280" height="720" fill="#FFFFFF"/><rect x="0" y="0" width="1280" height="720" fill="#156082"/><path d="M24 44.5651C24 31.5505 34.5504 21 47.5651 21L1233.43 21C1246.45 21 1257 31.5505 1257 44.5651L1257 673.435C1257 686.45 1246.45 697 1233.43 697L47.5651 697C34.5504 697 24 686.45 24 673.435Z" fill="#104862" fill-rule="evenodd"/><path d="M33 57.5056C33 43.4193 44.4193 32 58.5056 32L1220.49 32C1234.58 32 1246 43.4193 1246 57.5056L1246 660.494C1246 674.581 1234.58 686 1220.49 686L58.5056 686C44.4193 686 33 674.581 33 660.494Z" fill="#0B3041" fill-rule="evenodd"/></g></svg>